# xmcd CD database file
#
# Track frame offsets:
#	150
#	28996
#	59703
#	96140
#	120047
#	151821
#	184454
#	217958
#
# Disc length: 3270 seconds
#
# Revision: 0
# Processed by: cddbd v1.5.1PL2 Copyright (c) Steve Scherf et al.
# Submitted via: CDex 1.51
#
DISCID=690cc408
DTITLE=Dirk van der Linden Trio - Whatever
DYEAR=1998
DGENRE=Jazz
TTITLE0=T.C. Blues (Theatercafé Blues)
TTITLE1=Cherokee
TTITLE2=Whatever
TTITLE3=Muriël
TTITLE4=Sidje
TTITLE5=Moanin'
TTITLE6=You don't know what love is
TTITLE7=Blues for Robbie
EXTD=YEAR: 1998
EXTT0=
EXTT1=
EXTT2=
EXTT3=
EXTT4=
EXTT5=
EXTT6=
EXTT7=
PLAYORDER=
